<svg xmlns="http://www.w3.org/2000/svg" width="123.663" height="20.59" viewBox="0 0 123.663 20.59">
  <g id="Group_5929" data-name="Group 5929" transform="translate(-219 -210)">
    <g id="Group_146" data-name="Group 146" transform="translate(219 210)">
      <path id="Path_1426" data-name="Path 1426" d="M72.355,0H40V9.413H62.061V20.59H72.355Z" transform="translate(-27.058)" fill="#3a5fad"/>
      <path id="Path_1438" data-name="Path 1438" d="M0,0H10.295V9.413H0Z" transform="translate(0)" fill="#f04d7c"/>
    </g>
    <path id="Path_1437" data-name="Path 1437" d="M8.111-27.7a3.313,3.313,0,0,0-1.054-.842,2.675,2.675,0,0,0-1.217-.306,2.6,2.6,0,0,0-1.348.362,2.6,2.6,0,0,0-.961.986,2.786,2.786,0,0,0-.349,1.385,2.821,2.821,0,0,0,.349,1.391,2.637,2.637,0,0,0,.961,1,2.563,2.563,0,0,0,1.348.368,2.816,2.816,0,0,0,1.192-.281A3.743,3.743,0,0,0,8.111-24.4l1.16,1.26A5.257,5.257,0,0,1,7.63-21.989a4.568,4.568,0,0,1-1.89.424,4.657,4.657,0,0,1-2.333-.593A4.33,4.33,0,0,1,1.76-23.786a4.527,4.527,0,0,1-.6-2.308,4.366,4.366,0,0,1,.611-2.283,4.367,4.367,0,0,1,1.678-1.61,4.826,4.826,0,0,1,2.364-.586,4.739,4.739,0,0,1,1.872.393,4.717,4.717,0,0,1,1.572,1.067Zm8.7,6-.686-1.7H12.078l-.686,1.7H9.358l3.793-8.734h2.034L18.916-21.7Zm-4.08-3.281h2.757l-1.372-3.394Zm13.138-5.452h1.872V-21.7h-1.8l-4.23-5.615V-21.7H19.826v-8.734h1.8l4.242,5.64Zm7.5,0a5.012,5.012,0,0,1,2.383.555,4.028,4.028,0,0,1,1.628,1.547,4.4,4.4,0,0,1,.58,2.265,4.329,4.329,0,0,1-.593,2.265,4.094,4.094,0,0,1-1.653,1.547,5.141,5.141,0,0,1-2.421.555H29.658v-8.734Zm.05,7.074a2.513,2.513,0,0,0,1.3-.343,2.382,2.382,0,0,0,.9-.954,2.936,2.936,0,0,0,.324-1.4,2.877,2.877,0,0,0-.343-1.41,2.464,2.464,0,0,0-.936-.967,2.628,2.628,0,0,0-1.341-.343h-1.7v5.415Zm5.839-7.074h1.971V-21.7H39.253Zm7.611,0a5.012,5.012,0,0,1,2.383.555,4.028,4.028,0,0,1,1.628,1.547,4.4,4.4,0,0,1,.58,2.265,4.329,4.329,0,0,1-.593,2.265,4.094,4.094,0,0,1-1.653,1.547,5.141,5.141,0,0,1-2.421.555H43.158v-8.734Zm.05,7.074a2.513,2.513,0,0,0,1.3-.343,2.382,2.382,0,0,0,.9-.954,2.936,2.936,0,0,0,.324-1.4,2.877,2.877,0,0,0-.343-1.41,2.464,2.464,0,0,0-.936-.967,2.628,2.628,0,0,0-1.341-.343h-1.7v5.415ZM58.967-21.7l-.686-1.7H54.238l-.686,1.7H51.518l3.793-8.734h2.034L61.075-21.7Zm-4.08-3.281h2.757l-1.372-3.394Zm5.328-5.452h7.3v1.672h-2.67V-21.7H62.872v-7.062H60.214Zm8.36,0h6.65V-28.8H70.545v1.9h4.2v1.634h-4.2v1.934h4.816V-21.7H68.574ZM5.49-18.829a3.814,3.814,0,0,1,2.583.792,2.809,2.809,0,0,1,.911,2.24,3.049,3.049,0,0,1-.917,2.364,3.669,3.669,0,0,1-2.576.842H3.756v2.5H1.785v-8.734Zm-.1,4.592a1.909,1.909,0,0,0,1.279-.381,1.391,1.391,0,0,0,.443-1.117,1.338,1.338,0,0,0-.443-1.092,1.953,1.953,0,0,0-1.279-.368H3.756v2.957ZM16.071-10.1l-.686-1.7H11.342l-.686,1.7H8.622l3.793-8.734h2.034L18.18-10.1Zm-4.08-3.281h2.757l-1.372-3.394Zm5.328-5.452h7.3v1.672h-2.67V-10.1H19.976v-7.062H17.319Zm8.36,0H27.65v3.643H31.6v-3.643h1.971V-10.1H31.6v-3.444H27.65V-10.1H25.678Zm20.475,0h2.034L45.23-10.1H43.2l-1.834-6.3L39.5-10.1H37.481l-2.945-8.734h2.121l1.9,6.663,1.884-6.663h1.934l1.909,6.663ZM54.937-10.1l-.686-1.7H50.208l-.686,1.7H47.488l3.793-8.734h2.034L57.045-10.1Zm-4.08-3.281h2.757l-1.372-3.394Zm13.824-5.452L61.5-12.915v2.82H59.528v-2.77L56.3-18.829H58.28l2.233,3.918L62.7-18.829ZM71.356-16.4a6.631,6.631,0,0,0-1.429-.655,4.329,4.329,0,0,0-1.291-.243,1.52,1.52,0,0,0-.811.187.608.608,0,0,0-.3.549.769.769,0,0,0,.43.7,6.644,6.644,0,0,0,1.329.505,11.483,11.483,0,0,1,1.479.524,2.622,2.622,0,0,1,.992.786,2.178,2.178,0,0,1,.412,1.385,2.373,2.373,0,0,1-.443,1.441,2.731,2.731,0,0,1-1.216.917,4.672,4.672,0,0,1-1.759.312,6.022,6.022,0,0,1-2.084-.374,5.625,5.625,0,0,1-1.772-1.023l.786-1.61a5.314,5.314,0,0,0,1.522.961,4.1,4.1,0,0,0,1.572.362,1.733,1.733,0,0,0,.954-.225.729.729,0,0,0,.343-.649.731.731,0,0,0-.231-.555,1.767,1.767,0,0,0-.586-.356q-.356-.137-.979-.312a11.152,11.152,0,0,1-1.466-.5,2.58,2.58,0,0,1-.979-.761,2.1,2.1,0,0,1-.412-1.36,2.307,2.307,0,0,1,.424-1.379,2.692,2.692,0,0,1,1.185-.911,4.567,4.567,0,0,1,1.772-.318,6.134,6.134,0,0,1,1.772.262,5.994,5.994,0,0,1,1.547.7Z" transform="translate(267.302 240.573)" fill="#3a5fad"/>
  </g>
</svg>
