<?xml version="1.0" encoding="utf-8"?>
<!-- Generator: Adobe Illustrator 22.1.0, SVG Export Plug-In . SVG Version: 6.00 Build 0)  -->
<svg version="1.1" id="Layer_1" xmlns="http://www.w3.org/2000/svg" xmlns:xlink="http://www.w3.org/1999/xlink" x="0px" y="0px"
	 viewBox="0 0 302 302" style="enable-background:new 0 0 302 302;" xml:space="preserve">
<g>
	<path d="M268.5,146.3l-6.9-10c0,0,8.1,0.6,9.4,3.7C271.9,143.2,268.5,146.3,268.5,146.3 M282.5,145.4L282.5,145.4
		c-7.2-13.7-9.7-15-21.9-17.8l0,0c-6.6-3.7-13.1-6.2-20-7.2l0,0c-1.9,2.5-3.4,5-4.7,7.8c-0.9,1.9-1.2,4.1-0.6,5.9
		c-1.6-1.9-1.6-4.4-0.9-6.6c0.6-2.2,1.6-4.1,2.8-5.9c0.3-0.6,0.6-0.9,0.9-1.6c-1.2,0-2.5-0.3-4.1-0.3c-0.3,0-0.6,0-0.9,0l-1.2,1.9
		c-0.9,1.2-1.6,2.8-2.5,4.1c-0.6,1.6-1.6,2.8-1.6,4.7c-0.9-1.6-0.3-3.4,0-5c0.6-1.6,1.2-3.1,2.2-4.7c0.3-0.3,0.3-0.3,0.6-0.6
		c-0.9,0-1.9,0.3-2.8,0.3l-1.9,1.2c-2.2,2.2-3.7,5-4.4,8.1c0-1.6,0.6-3.1,1.2-4.7c0.6-1.2,1.2-2.5,2.2-3.7l-10.9-8.4
		c-3.7-2.8-7.5-5.9-11.6-7.8c-0.3,0-0.3,0-0.6-0.3l0,0l0,0c-0.3,0.3-0.6,0.6-0.6,1.2c-0.3,0.9-0.6,2.2-0.9,3.1
		c-0.6,2.2-0.9,4.7-1.6,6.9c-0.9,4.1-1.6,8.4-2.2,12.5c1.6-0.6,2.8-1.2,4.4-1.6c5.9-2.2,11.9-4.4,18.1-5.6
		c-5.9,1.6-11.9,4.1-17.8,6.6c-1.6,0.6-3.4,1.6-5,2.2l0,0l0,0c-1.2,0.6-2.2,0.9-3.4,1.6c0.9,0,2.2,0,3.1,0c2.8,0.3,5.6,0.3,8.1,1.6
		c-2.5-0.9-5.3-0.9-8.1-0.9s-5.3,0.3-8.1,0.3c-5.3,0.3-10.9,0.9-16.2,1.9c-5.3,0.9-10.6,2.2-15.6,4.1c-2.5,0.9-5,2.2-6.9,3.4
		c-0.9,0.6-2.2,1.6-2.8,2.5c-0.3,0.3-0.6,0.9-0.6,0.9s0,0,0.3,0.3c0.6,0.3,1.2,0.3,2.2,0.3c0.3,0,0.6,0,0.9,0c1.2,0,2.2,0,3.4,0
		c0.3,0,0.6,0,0.6,0c3.1,0,6.2,0.3,9.1,0.3c5.3,0.3,10.9,0.9,16.2,1.6c2.5,0.3,5,0.6,7.5,1.2c2.8,0.3,5.3,0.9,8.1,0.9
		c0.3,0,0.6,0,0.9,0c2.2,0,4.7-0.3,6.9-1.2c2.5-0.9,4.7-2.8,6.9-4.4c-2.2,1.9-4.1,3.7-6.6,5c-2.5,1.2-5.3,1.9-8.1,1.9
		c-0.3,0-0.6,0-0.6,0c-2.5,0-5-0.3-7.5-0.6c-4.4-0.6-8.7-0.9-12.8-1.2c-2.5,0.9-4.4,1.9-6.6,2.8c-4.1,5.6-8.1,12.2-11.9,20.3
		c-3.4,7.8-5.9,20.9-6.2,35.3c0,0.3,0,0.3,0,0.6c0.6,0,1.2,0,2.2,0c1.2,0,2.5,0,3.7,0.3c2.2,0.6,4.1,1.2,5.9,2.2l0.3,0.3
		c0.3-0.3,0.3-0.3,0.6-0.6l-0.3,0.6l3.7,2.2c2.8,1.6,5,2.8,7.2,3.4c1.6-2.2,2.5-3.7,2.5-3.7l0,0c0-0.3,0.3-0.6,0.3-0.6
		c3.7-9.4,9.1-17.5,15.3-23.4c7.2-7.5,19.7-13.4,34.7-16.2h0.6c1.2,0,2.5-0.3,4.1-0.3c1.6,0,3.4,0,5,0c1.6,0,3.1,0,5,0
		c0.3,0,0.3,0,0.6,0c1.9,0,3.4,0,5-0.3c1.2-0.3,2.5-0.3,3.7-0.3c0.3,0,0.6,0,1.2,0c1.9-2.2,3.7-5.6,4.4-10
		c1.2-8.7-1.2-14.4-1.2-14.4s6.9,4.7,8.4,14c0.6,5-2.2,8.7-5.3,11.2c1.2,0.3,2.2,0.6,2.5,0.6c7.2,3.4,16.5,4.4,24.3,4.4
		c8.1,0,14.7-1.2,15-1.9C296.9,164.1,289.1,152.2,282.5,145.4"/>
	<path d="M209.5,201.2c-2.5,0-8.1-8.4-10.9-14l-0.3-0.6l0.6-0.6c5.6-4.1,13.4-7.2,22.2-9.1l1.6-0.3l-0.6,1.6
		c-1.6,5.3-2.8,8.7-3.7,10.6c-3.7,7.5-5.9,11.2-7.8,12.5l-0.3,0.3L209.5,201.2L209.5,201.2z"/>
	<path d="M113.3,237.8L113.3,237.8c1.2-0.9,2.2-0.9,3.4-0.9c1.6,0,3.4,0.6,5,0.9c2.8,0.9,5.6,2.5,8.4,4.1l4.4,2.5
		c1.6,0.9,3.4,1.6,5.3,1.9c1.2,0.3,2.2,0.3,3.4,0.3c2.5,0,5-0.6,7.2-1.2l0.3-0.3c0-0.3,0-0.6-0.3-0.9c-1.6-0.6-3.4-1.2-5-1.6
		c-1.6-0.3-3.1-0.9-4.4-1.2c-1.6-0.3-2.8-0.9-4.1-1.6c-1.2-0.6-2.8-1.6-4.4-2.5c-3.1-1.6-6.6-2.8-10-3.4c-0.9,0-2.2-0.3-3.1-0.3
		c-0.6,0-1.6,0-2.5,0.3c-1.9,0.3-3.7,1.2-4.7,3.1c0,0.3,0,0.3,0,0.6l0.3,0.3C113,237.8,113.3,237.8,113.3,237.8"/>
	<path d="M158.9,240.6c1.6,0,3.4,0,5-0.3c3.7-0.6,7.5-1.9,10.6-3.7c3.1-2.2,6.2-4.7,7.5-8.4c0-0.3,0-0.3,0-0.6
		c0-0.6-0.6-1.2-1.2-1.2l0,0l0,0c-1.6,0.3-2.8,0.3-4.1,0.3c-0.3,0-0.3,0-0.6,0c-0.3,0-0.6,0-0.9,0c-1.2,0-2.5,0-3.4-0.3
		c-0.6,0-1.2-0.3-2.2-0.3c-1.9-0.3-3.4-0.6-5.3-1.2c-4.7-1.2-9.4-3.1-14.7-5l-1.9-0.6c-0.6-0.3-1.6-0.6-2.2-0.9
		c-1.6-0.6-3.1-1.2-4.7-1.6c-2.5-0.9-5.9-1.6-9.4-1.6c-0.6,0-1.2,0-1.9,0c-4.1,0.3-8.1,1.6-11.6,4.1c-3.1,2.5-5.9,6.6-5.6,10.6
		c0,0.3,0,0.3,0.3,0.6c0.3,0.3,0.6,0.6,0.9,0.6s0.6,0,0.6-0.3h0.3c2.2-1.6,4.4-1.9,6.6-1.9c0.3,0,0.6,0,0.9,0
		c2.2,0.3,4.4,0.6,6.6,1.6c2.2,0.9,3.7,1.6,6.6,3.1c1.2,0.6,2.5,1.2,3.7,1.9c0.6,0.3,1.2,0.6,1.9,0.9l2.2,0.9
		C147.7,239.3,153,240.6,158.9,240.6"/>
	<path d="M143.9,214c1.6,0.6,3.4,0.9,5,1.6c1.6,0.3,3.1,0.6,4.4,1.2c1.6,0.3,2.8,0.9,4.1,1.6c1.2,0.6,2.8,1.6,4.4,2.5
		c2.5,1.2,5.3,2.2,8.1,2.8c1.9,0.3,3.7,0.6,5.9,0.6c0.6,0,0.9,0,1.6-0.3c1.9-0.3,3.7-1.2,4.7-3.1c0-0.3,0-0.3,0-0.6l-0.3-0.3h-0.3
		h-0.3c-0.9,0.6-2.2,0.9-3.4,0.9c-1.6,0-3.4-0.6-5-0.9c-2.8-0.9-5.6-2.5-8.4-4.1l-4.4-2.5c-1.6-0.9-3.4-1.6-5.3-1.9
		c-1.2-0.3-2.2-0.3-3.4-0.3c-2.5,0-5,0.6-7.2,1.6l-0.3,0.3C143.6,213.7,143.6,214,143.9,214"/>
	<path d="M147.7,212.2L147.7,212.2c-0.6,0-1.2,0.3-1.6,0.3c-0.3,0.6-0.3,1.6-0.6,2.2c0.9,0.3,2.2,0.6,3.1,0.9
		C148.3,214.4,148,213.1,147.7,212.2"/>
	<path d="M134.5,244.3c1.6,0.9,3.4,1.6,5.3,1.9c1.2,0.3,2.2,0.3,3.4,0.3c2.5,0,5-0.6,7.2-1.2l0.3-0.3c0-0.3,0-0.6-0.3-0.9
		c-1.6-0.6-3.4-1.2-5-1.6c-1.6-0.3-3.1-0.9-4.4-1.2c-1.6-0.3-2.8-0.9-4.1-1.6c-1.2-0.6-2.8-1.6-4.4-2.5c-0.3,0-0.3-0.3-0.6-0.3
		c-1.2,1.2-2.5,2.5-4.1,3.4c0.6,0.3,1.6,0.9,2.2,1.2L134.5,244.3L134.5,244.3z"/>
	<path d="M162,240.6c-5-4.7-9.4-11.2-12.5-20.6l-1.9-0.6c-0.6-0.3-1.6-0.6-2.2-0.9c-0.3,0-0.6-0.3-0.9-0.3
		c-2.2,6.6-5.3,11.6-9.1,15.9c0.9,0.6,2.2,0.9,3.1,1.6c0.6,0.3,1.2,0.6,1.9,0.9l2.2,0.9c5,1.9,10.3,3.4,16.2,3.4
		C159.8,240.6,160.8,240.6,162,240.6"/>
	<path d="M158.3,297.4c-0.3,0.9-1.2,1.6-1.6,1.6h-0.3c-0.6-0.3-0.6-1.2,0-2.5c0.3-0.9,1.2-1.6,1.6-1.6h0.3
		C158.9,295.2,158.9,296.5,158.3,297.4 M137.4,299C137,299,137,299,137.4,299c-0.9,0-1.6-0.6-1.9-1.6c-0.6-1.2-0.3-2.2,0-2.5h0.3
		c0.6,0,1.2,0.6,1.6,1.6C138,297.7,137.7,298.6,137.4,299 M181.1,251.2c-5.6-2.2-11.6-4.7-16.9-8.7l0,0c-1.9,0.3-3.4,0.3-5.3,0.3
		c-2.2,0-4.7-0.3-6.9-0.6c0.6,0.3,0.9,0.6,1.2,1.2c0.3,0.6,0.3,1.6,0,2.2c-0.3,0.6-0.9,1.2-1.9,1.6c-2.8,0.9-5.3,1.6-7.8,1.6
		c-1.2,0-2.8,0-4.1-0.3c-2.2-0.6-4.1-1.2-5.9-2.2l-4.4-2.5c-0.9-0.6-2.2-1.2-3.1-1.6c-7.5,5.3-15.6,8.1-22.5,10
		c-11.2,2.8-15,1.2-26.5-5c2.8,32.5,16.5,37.1,29,39.6h0.6c4.4,1.2,10.6,2.5,15.9,2.5c1.6,0,4.4,0,5.6-0.3c1.6,0-3.1-17.8,3.7-30.6
		c-0.9,4.7-4.7,19.4,0.9,34.7c0.3,0.3,0.3,0.6,0.6,0.9c-0.3,0.6-0.3,0.9-0.6,1.6c0,0.9,0,1.9,0.6,2.5c0.9,1.9,2.2,2.8,3.7,2.8
		c0.3,0,0.9,0,1.2-0.3c0,0,0,0,0.3,0c0.6,0.6,0.9,0.6,1.2,0.9c0.3,0,0.6,0,0.9,0c0.9,0,1.9-0.3,2.8-0.6c0.9-0.3,2.2-0.6,3.7-0.6
		c1.6,0,2.8,0.3,3.7,0.6c0.9,0.3,1.9,0.6,2.8,0.6c0.3,0,0.6,0,0.9,0s0.6-0.3,1.2-0.6c0.3,0,0.6,0.3,0.9,0.3c1.6,0,2.8-1.2,3.7-2.8
		c0.3-0.9,0.6-1.9,0.6-2.5c0-0.3,0-0.9-0.3-1.2c0.3-0.3,0.6-0.9,0.6-1.2c0.3-0.3,0.3-0.3,0.3-0.3l0.3-0.3c2.8-9.7,1.6-29.3,0.6-33.7
		c5.3,13.4,1.9,30.9,2.8,30.9c0.9,0,4.7,0,5.9,0c5.6,0,11.9-1.2,15.9-2.5l0.6-0.3c12.5-2.5,26.2-7.2,29-39.6
		C201,254.6,193.9,255.9,181.1,251.2"/>
	<path d="M115.8,145.1c-0.3-0.3-0.6-0.9-0.9-1.2C115.2,144.1,115.5,144.7,115.8,145.1"/>
	<path d="M22.2,155.4l-0.9-0.3c-0.3,0-1.9-0.9-2.2-2.5c-0.3-0.6,0-1.6,0.3-2.5c1.2-2.2,3.7-2.2,5-1.9l0.9,0.3L22.2,155.4L22.2,155.4
		z M131.1,212.8L131.1,212.8c3.4,0,7.2,0.6,10,1.6h0.3c-0.3-0.6-0.3-1.2,0-1.9c0.3-0.3,0.3-0.9,0.6-0.9
		c-1.9-10.9-8.4-33.7-32.2-70.9c-1.6-1.6-3.1-2.8-4.7-4.1c-5.6-5.6-11.9-9.7-17.5-12.5c-1.2-0.9-2.2-1.2-2.2-1.2v0.3
		c-6.2-2.8-10.9-4.4-11.6-4.4c-23.4-6.9-54.3-5-60.9,4.7c-0.6,0.6,1.6,4.4,1.2,5c-4.4,7.2-5.3,13.1-5.3,13.1
		c-0.3,1.2-0.9,2.5-1.2,3.7c-0.3,1.9-0.3,4.1-0.3,5.6c0,0.3,0,0.3,0,0.6c0,0.6,2.5,16.2,1.2,24c-0.6,3.7-1.6,7.2-2.5,10.3
		c-0.9,3.4-1.9,6.6-1.9,8.7c0,1.9,1.9,6.9,4.1,7.5c1.2,0.3,2.5-0.9,3.4-2.5c0.9-1.6,2.2-4.7,3.7-8.4c3.1-8.1,7.2-18.1,11.2-20.6
		c1.9-1.2,3.7-2.2,5.9-3.1c3.7-1.9,7.5-3.7,9.7-7.2c0,0,0.9-2.5,0.9-5.9c-0.3-1.6-0.3-3.1-0.9-4.7c-0.6-1.6-1.2-3.1-2.2-4.4
		c-0.9-1.2-2.5-2.2-4.1-3.1c1.6,0.3,3.1,1.2,4.4,2.5v-0.3l0.3-0.3l0,0c0-0.9,2.8-4.7,5.9-4.4c9.7,0.3,11.6,5.3,14,8.7
		c1.9,2.5,2.5,7.2,3.1,10c0.3,1.2,1.2,15.3,3.4,20.6c6.2,14.4,25.9,24,28.7,26.2c5.6,4.4,9.1,5.3,15.3,9.7c0.6,0.3,3.4,1.9,5.9,3.4
		c4.4-3.4,9.4-4.4,12.8-4.7C129.9,212.8,130.5,212.8,131.1,212.8"/>
	<path d="M117.4,12.1c-0.6,0-1.2,0-1.9,0c-0.3,0-0.3,0-0.6,0c-1.2,0-2.2,0.6-2.8,1.6c-0.6,1.6-0.9,3.1-0.6,4.4
		c0.3,1.6,1.6,2.5,2.2,3.1c0.6,0.6,1.6,0.9,2.2,1.2c0.6-4.7,2.2-8.1,3.7-10.6C118.9,11.8,118.3,12.1,117.4,12.1"/>
	<path d="M144.9,212.8c0,0.6,0,1.2,0.3,1.9c0.6,0.3,1.2,0.3,1.9,0.6c0-0.9,0-1.9,0-2.8C146.1,212.5,145.5,212.5,144.9,212.8"/>
	<path d="M141.4,43c-0.9,0.3-1.9,0.6-2.8,0.9c-0.6,0.3-1.2,0.3-1.9,0.3c-0.6,0-0.9,0-1.2,0c-2.2-0.3-4.4-0.9-5.9-2.5c0,0,0,0,0-0.3
		c-0.6,0.6-1.6,1.2-2.2,2.2c-2.2,2.2-4.4,4.7-5,8.1h-0.3c0-1.6,0.6-3.1,1.2-4.7c0.6-1.6,1.6-2.8,2.8-4.1c0.6-0.9,1.6-1.6,2.5-2.2
		c-0.9-1.2-1.2-3.1-1.2-4.7c0.3,1.6,0.9,2.8,1.9,4.1c0.3-0.3,0.3-0.3,0.6-0.6c1.2-0.9,2.8-1.9,4.4-2.5v0.3c-1.2,0.9-2.5,1.9-3.7,3.1
		c-0.3,0.3-0.3,0.3-0.6,0.6c0,0,0,0,0,0.3c1.6,1.2,3.4,1.9,5.3,1.9c0.3,0,0.3,0,0.6,0c1.6,0,3.1-0.6,5-1.6c1.6-0.6,3.4-1.2,5.3-1.2
		c0.3,0,0.6,0,0.9,0c4.1,0.3,7.8,2.5,11.2,2.5h0.3c1.9,0,3.7-0.6,5.3-1.9c0,0,0-0.3,0.3-0.3c-0.3-0.3-0.3-0.3-0.6-0.6
		c-1.2-1.2-2.5-2.2-3.7-3.1v-0.3c1.6,0.6,2.8,1.6,4.4,2.5c0.3,0,0.3,0.3,0.6,0.6c0.9-1.2,1.6-2.5,1.9-4.1c0,1.6-0.3,3.1-1.2,4.4
		c0.9,0.6,1.9,1.2,2.5,2.2c1.2,1.2,2.2,2.8,2.8,4.1c0.6,1.6,1.2,3.1,1.2,4.7h-0.3c-0.6-3.1-2.8-5.6-5-8.1c-0.6-0.6-1.6-1.6-2.2-2.2
		c0,0,0,0.3-0.3,0.3c-1.6,1.6-3.7,2.5-5.9,2.5c-0.3,0-0.9,0-1.2,0c-1.9,0-3.4-0.6-5-0.9c-1.9-0.6-3.7-1.2-5.6-1.2
		c-0.3,0-0.6,0-0.9,0C144.5,42,143,42.3,141.4,43 M133,20.5c-1.2,0-2.5-1.2-2.5-2.5s1.2-2.5,2.5-2.5c1.2,0,2.5,1.2,2.5,2.5
		C135.5,19.2,134.5,20.5,133,20.5 M147,25.8c1.9,0,7.2,0.3,7.2,6.6c0,1.6-3.4,2.5-7.2,2.5c-3.4,0-7.2-0.9-7.2-2.5
		C139.9,26.1,145.5,25.8,147,25.8 M159.5,15.5c1.2,0,2.5,1.2,2.5,2.5c0,1.2-1.2,2.5-2.5,2.5c-1.2,0-2.5-1.2-2.5-2.5
		C156.7,16.7,158,15.5,159.5,15.5 M182,116c-0.6,0.6-1.6,1.2-2.2,1.9c-3.1,2.2-6.6,3.7-10.3,5c-1.9,0.6-3.7,0.6-5.6,1.2l-5.6,0.3
		v-0.3c-0.6,0.3-1.6,0.3-2.2,0.3c-1.2,0-2.5-0.3-3.7-0.6c-1.6,1.6-3.4,2.5-5,2.8c0.9-1.2,1.9-2.8,2.8-4.4c-0.3-0.3-0.6-0.6-0.6-0.6
		c-0.6,1.6-1.6,3.4-2.2,5H147c0.3-2.5,0.3-5,0.6-7.8c0-0.3,0-0.6,0-0.9l0,0c-0.6-2.5-0.6-4.7,0.3-7.2c0-0.6,0-1.2,0-1.9
		c0-3.4,0-6.9-0.3-10.3c0-3.1-0.3-5.9-0.6-9.1c3.1,0,6.2,0.6,9.1,1.6c1.6,2.5,2.5,5.3,2.2,8.1c-0.3,1.9-0.9,4.1-1.6,5.9
		c0.9-0.3,1.6-0.3,2.2-0.6c0.3-1.6,0.9-3.4,0.9-5.3c0.3-3.1-0.9-5.9-3.1-7.8c4.4,1.6,7.8,3.4,8.7,4.7c0.3,0.6,0,1.9-0.3,3.7
		c2.5-3.1,4.1-7.2,2.5-11.2h0.3c0.9,1.9,1.2,4.4,0.6,6.6c-0.6,2.2-1.6,4.4-2.8,6.2c-1.2,1.9-3.1,3.4-5.3,4.4
		c-2.2,1.2-4.4,1.6-6.2,2.2c-1.9,0.9-3.4,1.9-3.7,3.7c0,0.3,0,0.9-0.3,1.6c0.3,0,0.6,0,0.9,0c2.5,0,5-0.3,7.2-1.6l0,0h0.3v0.3
		c-1.2,0.9-3.1,1.6-4.7,2.2c-1.2,0.3-2.5,0.3-3.7,0.6c0,0.9,0,1.9,0.3,2.5c0,0.3,0.3,0.3,0.3,0.6l0,0l0,0l0,0l0,0c0.6,0,1.6,0,2.2,0
		c2.5,0,5-0.3,7.2-1.6l0,0h0.3v0.3c-1.2,0.9-3.1,1.6-4.7,2.2c-1.6,0.3-3.1,0.6-4.7,0.6c0.3,0.6,0.9,1.2,1.2,1.9c0.6,0,1.2,0,1.9,0
		c1.6,0,3.4-0.3,4.7-0.9l0,0l0,0h0.3v0.3c-0.9,0.9-2.2,1.2-3.4,1.6c-0.6,0-1.2,0.3-1.6,0.3c1.2,0.6,2.8,1.2,4.4,1.6v0.3l5.3-0.9
		c1.9-0.6,3.4-0.9,5.3-1.6c3.4-1.2,6.6-3.1,9.4-5.3c1.6-1.6,3.1-3.1,4.1-5c0-0.6,0.3-1.2,0.6-1.9c0.9-2.5,2.2-5.9,3.1-9.7
		c0-0.6,0-1.2,0-1.9h0.3c0.6-4.1,0.9-8.4,0-12.2c-2.8-10-7.2-15.6-9.4-18.7c-1.2-1.9-1.9-2.5-1.9-3.4c0-0.3,1.2-7.5,1.2-24.3
		c-1.9-1.6-4.4-2.2-6.6-2.8c-1.6-0.6-3.1-0.9-4.7-1.2c-1.6-0.3-3.1-0.6-4.7-0.9v-0.3c0.9,0,1.6-0.3,2.5-0.3c0.9,0,1.6,0,2.5,0
		c1.9,0,3.4,0.3,5,0.9c1.6,0.6,3.1,1.2,4.4,2.2c0.6,0.3,0.9,0.9,1.6,1.2c0-2.5,0-5,0-7.2c-2.2-0.9-4.7-0.9-7.2-0.9
		c-0.3,0-0.6,0-1.2,0c-1.2,0-2.5,0-3.7,0c-1.6,0-3.1,0.3-4.7,0.6v-0.3c1.6-0.6,3.1-0.9,4.7-1.6c1.2-0.3,2.8-0.6,4.1-0.6
		c0.3,0,0.6,0,0.9,0c1.6,0,3.1,0.3,4.7,0.9c0.6,0.3,1.6,0.6,2.2,0.9c0-1.9,0-3.4-0.3-4.7l0,0l-0.6-2.8c-0.9-3.7-2.5-6.9-4.4-9.7
		l-2.5-3.4c-0.9-0.6-1.6-1.2-1.9-1.6c-6.9-4.7-14-6.6-20.3-6.6c-7.5,0-14.4,2.8-19.4,6.6l-0.3,0.3c-0.6,0.3-1.6,0.9-2.5,1.9
		l-1.9,2.8c-1.9,2.5-3.1,5.9-3.4,10l-0.6,3.1H118c0,1.2,0,2.5,0,4.1c0.6-0.3,1.2-0.6,2.2-0.9c1.6-0.6,3.1-0.9,4.7-0.9
		c0.3,0,0.6,0,0.9,0c1.2,0,2.8,0.3,4.1,0.6c1.6,0.3,3.1,0.9,4.7,1.6v0.3c-1.6-0.3-3.1-0.3-4.7-0.6c-1.2,0-2.5,0-3.7,0
		c-0.3,0-0.6,0-1.2,0c-2.5,0-4.7,0.3-7.2,0.9c0,2.2,0,4.7,0,7.2c0.6-0.3,0.9-0.9,1.6-1.2c1.2-0.9,2.8-1.6,4.4-2.2
		c1.6-0.6,3.4-0.9,5-0.9c0.9,0,1.6,0,2.5,0c0.9,0,1.6,0,2.5,0.3v0.3c-1.6,0.3-3.1,0.3-4.7,0.9c-1.6,0.3-3.1,0.6-4.7,1.2
		c-2.2,0.6-4.4,1.6-6.6,2.8c0,17.2,0.9,25.3,0.9,25.6v0.3v0.3c-1.2,2.5-3.1,5.6-4.7,8.7c-1.6,2.5-2.8,5.3-4.1,7.5
		c-2.2,4.4-3.1,9.4-2.8,14.7l0,0c0,0.3,0,0.3,0,0.6c0.3,4.1,1.2,8.4,3.1,13.1v0.3c0,0.3,0,0.6,0,0.9c0.9,1.6,2.2,3.1,3.4,4.4
		c2.5,2.5,5.6,4.4,9.1,5.9c1.6,0.6,3.4,1.2,5.3,1.9l5.3,1.2v-0.3c1.6-0.3,3.1-0.6,4.4-1.6c-0.6,0-0.9,0-1.6-0.3
		c-1.2-0.3-2.5-0.9-3.4-1.6V121c0,0,0,0,0.3,0l0,0l0,0c1.6,0.6,3.1,0.9,4.7,0.9c0.6,0,1.2,0,1.9,0c0.6-0.6,0.9-1.2,1.6-1.9
		c-1.6,0-3.1-0.3-4.4-0.6c-1.6-0.3-3.4-0.9-4.7-2.2V117c0,0,0,0,0.3,0l0,0c2.2,1.2,4.7,1.6,7.2,1.6c0.6,0,1.6,0,2.2,0l0,0
		c0-0.3,0.3-0.3,0.3-0.6c0.3-0.9,0.3-1.9,0.3-2.5c-1.2,0-2.5-0.3-3.7-0.3c-1.6-0.3-3.4-0.9-4.7-2.2v-0.3c0,0,0,0,0.3,0l0,0
		c2.2,1.2,4.7,1.6,7.2,1.6c0.3,0,0.3,0,0.6,0c0-0.6,0-0.9-0.3-1.6c-0.6-1.6-1.9-2.8-3.7-3.7c-1.9-0.9-4.1-1.2-6.2-2.2
		c-2.2-1.2-3.7-2.8-5.3-4.4c-1.2-1.9-2.5-3.7-2.8-6.2c-0.6-2.2-0.3-4.7,0.6-6.6h0.3c-1.6,4.1,0.3,8.7,3.1,11.6c0,0,0,0,0.3,0.3
		c-0.6-2.2-0.9-4.1-0.6-4.4c0.9-1.2,4.4-3.1,9.1-4.7c-1.9,2.2-3.1,5-3.1,7.8c0.3,1.9,0.6,3.7,0.9,5.3c0.6,0.3,1.6,0.6,2.2,0.6
		c-0.6-2.2-1.2-4.1-1.9-6.2c-0.3-2.8,0.6-5.6,2.2-8.1c2.8-0.9,5.9-1.6,9.1-1.6c-0.3,3.1-0.6,5.9-0.6,9.1c-0.3,3.4-0.3,6.9-0.3,10.3
		c0,1.6,0,2.8,0,4.4c0,0.9,0,1.6,0,2.5c0,1.2,0,2.2,0,3.4c0,2.5,0.3,5,0.6,7.8h-0.3c-0.9-1.9-1.6-3.7-2.5-5.6
		c-0.3,0.3-0.6,0.6-0.6,0.9c0.9,1.6,1.9,3.1,2.8,4.7c-1.9-0.3-3.7-1.2-5.3-2.8c-1.2,0.6-2.8,0.9-4.1,0.9c-0.9,0-1.6,0-2.5-0.3l0,0
		l-5.6-0.9c-1.9-0.6-3.7-0.9-5.3-1.6c-3.4-1.2-6.9-3.1-10-5.6c-0.6-0.3-0.9-0.9-1.6-1.6c0.9,9.1,2.5,15.6,4.4,24.3
		c0.6,2.5,0.6,5,1.6,7.8c-0.3-0.6-0.6-1.2-0.9-1.6c20.6,33.7,26.8,54.3,28.7,65.2c0.9-0.3,1.6-0.3,2.5-0.6c0-0.3,0-0.6,0-0.9
		c0.3-14.7,2.8-28.1,6.2-36.2c3.4-7.8,7.5-14.7,11.9-20.9l0.3-0.6l0.6-0.3l3.1-1.2c-2.2-0.3-4.1-0.3-6.2-0.6
		c-2.5-0.3-5.6-0.3-9.1-0.3H153c-1.2,0-2.2,0-3.1,0c-0.3,0-0.9,0-1.2,0c-1.2,0-2.5-0.3-3.1-0.6l0,0l0,0c-0.3-0.3-1.2-0.6-1.2-1.9
		l0,0v-0.3c0-0.9,0.6-2.2,0.9-2.5c0.6-0.9,1.9-1.9,3.1-2.8c1.9-1.2,4.4-2.5,7.5-3.7c5.3-2.2,10.9-3.1,15.9-4.1
		c2.5-0.3,5.3-0.9,8.4-1.2c0.9-5.9,1.2-10.9,1.6-14.4C181.7,116.6,182,116.3,182,116"/>
	<path d="M138.3,235.3c0.6,0.3,1.2,0.6,1.9,0.9l2.2,0.9c1.9,0.6,3.7,1.6,5.9,1.9c0-0.6-0.3-1.6-0.3-2.2v-0.6v-0.3v0.3l-0.6-8.1
		c-0.3-3.1-0.3-6.2-0.6-9.1c-0.6-0.3-0.9-0.3-1.6-0.6l0,0c0,1.2,0,1.9,0,2.2l-2.2-0.3c0,0,0-0.9,0-2.5c-0.6-0.3-1.6-0.6-2.2-0.6
		c-2.5-0.9-5.9-1.6-9.4-1.6c-0.6,0-1.2,0-1.9,0c-3.7,0.3-7.5,1.2-10.9,3.4c0.6,0.3,1.2,0.6,1.6,0.9c4.4,2.8,7.5,6.2,9.4,11.2
		c1.6,0.6,3.1,1.6,5.3,2.8C135.8,234.3,137,234.6,138.3,235.3"/>
	<path d="M178.3,11.8c-0.3,0-0.3,0-0.6,0c-0.6,0-1.2,0-1.9,0c-0.9,0-1.9,0-2.5-0.3c1.9,2.5,3.4,5.9,4.7,10.3
		c0.6-0.3,0.9-0.6,1.6-0.9c0.9-0.6,1.9-1.9,2.2-3.1c0.3-1.2,0-2.5-0.6-4.4C180.8,12.4,179.5,11.8,178.3,11.8"/>
	<path d="M167,153.5c-4.1,5.6-8.1,12.2-11.9,20.3c-3.4,7.8-5.9,20.9-6.2,35.3c0,0.3,0,0.3,0,0.6c0.6,0,1.2,0,2.2,0
		c1.2,0,2.5,0,3.7,0.3c0.3,0,0.9,0.3,1.2,0.3l0,0l0,0h0.3c6.2-29,11.9-41.5,16.2-51.5c1.2-2.8,2.2-5.3,3.4-7.8c-0.9,0-1.9,0-2.5-0.3
		C171.4,151.6,169.5,152.2,167,153.5"/>
	<path d="M151.1,232.8v0.6l0,0c0.3,0,0.9-0.3,1.2-0.6c0.3-2.2,0.9-4.4,1.2-6.6c-0.3,0.3-0.3,0.6-0.6,0.9
		C152,229.3,151.1,231.2,151.1,232.8"/>
	<path d="M150.5,236.2c0,1.2,0.3,2.5,0.3,3.4l0,0c0.3-1.2,0.3-2.5,0.6-3.7C151.4,236.2,151.1,236.2,150.5,236.2
		C150.8,236.2,150.5,236.2,150.5,236.2"/>
	<path d="M149.2,219.7c0,2.5,0.3,5.3,0.6,8.1c0.9-2.2,2.5-4.4,3.7-6.6C152.3,220.9,150.8,220.3,149.2,219.7L149.2,219.7L149.2,219.7
		z"/>
	<path d="M151.4,211.5c-0.6,0-1.6,0-2.2,0c0,1.2,0,2.5,0,4.1c1.6,0.3,2.8,0.6,4.1,1.2c0.6,0.3,1.2,0.3,1.9,0.6
		c0.3-1.9,0.6-3.4,0.9-5c-0.6-0.3-1.2-0.3-1.6-0.3C153.6,211.9,152.3,211.5,151.4,211.5"/>
	<path d="M144.2,249c0.3,1.9,0.6,3.7,1.2,5.6c0.3,0.9,0.9,1.2,1.6,1.2c0.9,0,1.6-0.6,1.6-1.6c0.3-1.9,0.6-3.7,0.9-5.6
		c0-0.3,0-0.6,0-0.9C147.7,248.7,145.8,249,144.2,249"/>
	<path d="M139.5,248.7c-1.2-0.3-2.5-0.6-3.7-1.2c0.9,5,1.9,11.2,2.5,19.7c0,0.9,0.3,0.6,0.6,0.6c0.6,0,0.6-0.6,1.2-2.5
		c1.9-5.9,3.1-11.6,3.7-16.2c-0.3,0-0.3,0-0.6,0C142,249,140.8,249,139.5,248.7"/>
	<path d="M180.8,133.8c-2.8,0.3-5.9,0.6-8.7,1.2c-5.3,0.9-10.6,2.2-15.6,4.1c-2.5,0.9-5,2.2-6.9,3.4c-0.9,0.6-2.2,1.6-2.8,2.5
		c-0.3,0.3-0.6,0.9-0.6,0.9s0,0,0.3,0.3c0.6,0.3,1.2,0.3,2.2,0.3c0.3,0,0.6,0,0.9,0c1.2,0,2.2,0,3.4,0c0.3,0,0.6,0,0.6,0
		c3.1,0,6.2,0.3,9.1,0.3c4.7,0.3,9.4,0.6,14,1.2c0.6-1.2,0.9-2.8,1.2-4.1c1.2-3.7,1.9-7.2,2.5-10.6
		C181.1,133.8,180.8,133.8,180.8,133.8"/>
	<path d="M143.3,246.8c1.9,0,4.1-0.3,5.9-0.9c0-0.9,0-1.6,0-2.2c-1.2-0.3-2.5-0.6-3.4-0.9c-1.6-0.3-3.1-0.9-4.4-1.2
		c-1.6-0.3-2.8-0.9-4.1-1.6c-1.2-0.6-2.8-1.6-4.4-2.5c0.6,1.9,1.6,4.1,2.2,7.2c1.6,0.9,3.1,1.2,5,1.9
		C141.1,246.5,142.4,246.8,143.3,246.8"/>
</g>
</svg>
